<svg width="57" height="56" viewBox="0 0 57 56" fill="none" xmlns="http://www.w3.org/2000/svg">
<path d="M40.4026 27.7555C40.4026 34.2037 35.1754 39.4309 28.7274 39.4309C22.2794 39.4309 17.0522 34.2037 17.0522 27.7555C17.0522 21.3074 22.2794 16.0801 28.7274 16.0801C35.1754 16.0801 40.4026 21.3074 40.4026 27.7555Z" stroke="#872D49" stroke-width="3.57434"/>
<rect width="10.5261" height="1.90568" rx="0.952838" transform="matrix(0.707103 0.707111 -0.707103 0.707111 9.854 8.7207)" fill="#872D49"/>
<rect width="10.5261" height="1.90568" rx="0.952838" transform="matrix(0.707103 0.707111 -0.707103 0.707111 40.6524 38.7393)" fill="#872D49"/>
<rect width="10.5261" height="1.90568" rx="0.952838" transform="matrix(-0.707103 0.707111 -0.707103 -0.707111 47.7056 8.88037)" fill="#872D49"/>
<rect width="10.5261" height="1.90568" rx="0.952838" transform="matrix(-0.707103 0.707111 -0.707103 -0.707111 17.6871 39.6802)" fill="#872D49"/>
<rect x="28.8128" y="0.960449" width="10.5261" height="1.90566" rx="0.952838" transform="rotate(90 28.8128 0.960449)" fill="#872D49"/>
<rect x="29.3644" y="43.9668" width="10.5261" height="1.90566" rx="0.952838" transform="rotate(90 29.3644 43.9668)" fill="#872D49"/>
<rect x="1.93433" y="27.6128" width="10.526" height="1.90569" rx="0.952838" fill="#872D49"/>
<rect x="44.9383" y="27.061" width="10.526" height="1.90569" rx="0.952838" fill="#872D49"/>
</svg>
